G04 #@! TF.GenerationSoftware,KiCad,Pcbnew,(6.0.9)*
G04 #@! TF.CreationDate,2023-03-03T19:19:16+01:00*
G04 #@! TF.ProjectId,02_Cartucho_MSX_Tang_Nano_9k_TMS9918,30325f43-6172-4747-9563-686f5f4d5358,rev?*
G04 #@! TF.SameCoordinates,Original*
G04 #@! TF.FileFunction,Copper,L1,Top*
G04 #@! TF.FilePolarity,Positive*
%FSLAX46Y46*%
G04 Gerber Fmt 4.6, Leading zero omitted, Abs format (unit mm)*
G04 Created by KiCad (PCBNEW (6.0.9)) date 2023-03-03 19:19:16*
%MOMM*%
%LPD*%
G01*
G04 APERTURE LIST*
G04 #@! TA.AperFunction,ComponentPad*
%ADD10C,1.600000*%
G04 #@! TD*
G04 #@! TA.AperFunction,ComponentPad*
%ADD11R,1.600000X1.600000*%
G04 #@! TD*
G04 #@! TA.AperFunction,ComponentPad*
%ADD12O,1.600000X1.600000*%
G04 #@! TD*
G04 #@! TA.AperFunction,SMDPad,CuDef*
%ADD13R,1.270000X7.620000*%
G04 #@! TD*
G04 #@! TA.AperFunction,ComponentPad*
%ADD14R,1.600000X2.400000*%
G04 #@! TD*
G04 #@! TA.AperFunction,ComponentPad*
%ADD15O,1.600000X2.400000*%
G04 #@! TD*
G04 #@! TA.AperFunction,ViaPad*
%ADD16C,0.800000*%
G04 #@! TD*
G04 #@! TA.AperFunction,Conductor*
%ADD17C,0.250000*%
G04 #@! TD*
G04 #@! TA.AperFunction,Conductor*
%ADD18C,0.400000*%
G04 #@! TD*
G04 APERTURE END LIST*
D10*
X79970000Y-93980000D03*
X74970000Y-93980000D03*
X125730000Y-115530000D03*
X125730000Y-110530000D03*
X92710000Y-115570000D03*
X92710000Y-110570000D03*
X59690000Y-115570000D03*
X59690000Y-110570000D03*
D11*
X64770000Y-116840000D03*
D12*
X67310000Y-116840000D03*
X69850000Y-116840000D03*
X72390000Y-116840000D03*
X74930000Y-116840000D03*
X77470000Y-116840000D03*
X80010000Y-116840000D03*
X82550000Y-116840000D03*
X85090000Y-116840000D03*
X87630000Y-116840000D03*
X87630000Y-109220000D03*
X85090000Y-109220000D03*
X82550000Y-109220000D03*
X80010000Y-109220000D03*
X77470000Y-109220000D03*
X74930000Y-109220000D03*
X72390000Y-109220000D03*
X69850000Y-109220000D03*
X67310000Y-109220000D03*
X64770000Y-109220000D03*
D13*
X142240000Y-139700000D03*
X139700000Y-139700000D03*
X137160000Y-139700000D03*
X134620000Y-139700000D03*
X132080000Y-139700000D03*
X129540000Y-139700000D03*
X127000000Y-139700000D03*
X124460000Y-139700000D03*
X121920000Y-139700000D03*
X119380000Y-139700000D03*
X116840000Y-139700000D03*
X114300000Y-139700000D03*
X111760000Y-139700000D03*
X109220000Y-139700000D03*
X106680000Y-139700000D03*
X104140000Y-139700000D03*
X101600000Y-139700000D03*
X99060000Y-139700000D03*
X96520000Y-139700000D03*
X93980000Y-139700000D03*
X91440000Y-139700000D03*
X88900000Y-138430000D03*
X86360000Y-139700000D03*
X83820000Y-139700000D03*
X81280000Y-139700000D03*
D14*
X125730000Y-81280000D03*
D15*
X123190000Y-81280000D03*
X120650000Y-81280000D03*
X118110000Y-81280000D03*
X115570000Y-81280000D03*
X113030000Y-81280000D03*
X110490000Y-81280000D03*
X107950000Y-81280000D03*
X105410000Y-81280000D03*
X102870000Y-81280000D03*
X100330000Y-81280000D03*
X97790000Y-81280000D03*
X95250000Y-81280000D03*
X92710000Y-81280000D03*
X90170000Y-81280000D03*
X87630000Y-81280000D03*
X85090000Y-81280000D03*
X82550000Y-81280000D03*
X80010000Y-81280000D03*
X77470000Y-81280000D03*
X74930000Y-81280000D03*
X72390000Y-81280000D03*
X69850000Y-81280000D03*
X67310000Y-81280000D03*
X67310000Y-104140000D03*
X69850000Y-104140000D03*
X72390000Y-104140000D03*
X74930000Y-104140000D03*
X77470000Y-104140000D03*
X80010000Y-104140000D03*
X82550000Y-104140000D03*
X85090000Y-104140000D03*
X87630000Y-104140000D03*
X90170000Y-104140000D03*
X92710000Y-104140000D03*
X95250000Y-104140000D03*
X97790000Y-104140000D03*
X100330000Y-104140000D03*
X102870000Y-104140000D03*
X105410000Y-104140000D03*
X107950000Y-104140000D03*
X110490000Y-104140000D03*
X113030000Y-104140000D03*
X115570000Y-104140000D03*
X118110000Y-104140000D03*
X120650000Y-104140000D03*
X123190000Y-104140000D03*
X125730000Y-104140000D03*
D11*
X130810000Y-116840000D03*
D12*
X133350000Y-116840000D03*
X135890000Y-116840000D03*
X138430000Y-116840000D03*
X140970000Y-116840000D03*
X143510000Y-116840000D03*
X146050000Y-116840000D03*
X148590000Y-116840000D03*
X151130000Y-116840000D03*
X153670000Y-116840000D03*
X153670000Y-109220000D03*
X151130000Y-109220000D03*
X148590000Y-109220000D03*
X146050000Y-109220000D03*
X143510000Y-109220000D03*
X140970000Y-109220000D03*
X138430000Y-109220000D03*
X135890000Y-109220000D03*
X133350000Y-109220000D03*
X130810000Y-109220000D03*
D11*
X97790000Y-116840000D03*
D12*
X100330000Y-116840000D03*
X102870000Y-116840000D03*
X105410000Y-116840000D03*
X107950000Y-116840000D03*
X110490000Y-116840000D03*
X113030000Y-116840000D03*
X115570000Y-116840000D03*
X118110000Y-116840000D03*
X120650000Y-116840000D03*
X120650000Y-109220000D03*
X118110000Y-109220000D03*
X115570000Y-109220000D03*
X113030000Y-109220000D03*
X110490000Y-109220000D03*
X107950000Y-109220000D03*
X105410000Y-109220000D03*
X102870000Y-109220000D03*
X100330000Y-109220000D03*
X97790000Y-109220000D03*
D16*
X120390000Y-131190000D03*
X117958000Y-134620000D03*
X110923000Y-122584000D03*
X108607000Y-123520000D03*
X100066000Y-130525000D03*
X101205000Y-133433000D03*
X100330000Y-134620000D03*
X101193000Y-130180000D03*
X118606000Y-128186000D03*
X119314000Y-127479000D03*
X120906000Y-128397000D03*
X125882000Y-134620000D03*
X120928000Y-125884000D03*
X140176000Y-119266000D03*
D17*
X126391000Y-131190000D02*
X120390000Y-131190000D01*
X139616000Y-117965000D02*
X126391000Y-131190000D01*
X146621000Y-117965000D02*
X139616000Y-117965000D01*
X147465000Y-117121000D02*
X146621000Y-117965000D01*
X147465000Y-116840000D02*
X147465000Y-117121000D01*
X148590000Y-116840000D02*
X147465000Y-116840000D01*
X117013100Y-135564900D02*
X116840000Y-135564900D01*
X117958000Y-134620000D02*
X117013100Y-135564900D01*
X116840000Y-139700000D02*
X116840000Y-135564900D01*
X104140000Y-135565000D02*
X104140000Y-139700000D01*
X110583000Y-129122000D02*
X104140000Y-135565000D01*
X125270000Y-129122000D02*
X110583000Y-129122000D01*
X137160000Y-117232000D02*
X125270000Y-129122000D01*
X137160000Y-116507000D02*
X137160000Y-117232000D01*
X137963000Y-115704000D02*
X137160000Y-116507000D01*
X141531000Y-115704000D02*
X137963000Y-115704000D01*
X142385000Y-116559000D02*
X141531000Y-115704000D01*
X142385000Y-116840000D02*
X142385000Y-116559000D01*
X143510000Y-116840000D02*
X142385000Y-116840000D01*
X125698000Y-129572000D02*
X138430000Y-116840000D01*
X112672000Y-129572000D02*
X125698000Y-129572000D01*
X106680000Y-135565000D02*
X112672000Y-129572000D01*
X106680000Y-139700000D02*
X106680000Y-135565000D01*
X106961000Y-122584000D02*
X110923000Y-122584000D01*
X93980000Y-135565000D02*
X106961000Y-122584000D01*
X93980000Y-139700000D02*
X93980000Y-135565000D01*
X100066000Y-130281000D02*
X100066000Y-130525000D01*
X106826000Y-123520000D02*
X100066000Y-130281000D01*
X108607000Y-123520000D02*
X106826000Y-123520000D01*
X98652200Y-133433000D02*
X101205000Y-133433000D01*
X96520000Y-135565000D02*
X98652200Y-133433000D01*
X96520000Y-139700000D02*
X96520000Y-135565000D01*
X99385100Y-135565000D02*
X100330000Y-134620000D01*
X99060000Y-135565000D02*
X99385100Y-135565000D01*
X99060000Y-139700000D02*
X99060000Y-135565000D01*
X101963000Y-130949000D02*
X101193000Y-130180000D01*
X101963000Y-135202000D02*
X101963000Y-130949000D01*
X101600000Y-135565000D02*
X101963000Y-135202000D01*
X101600000Y-139700000D02*
X101600000Y-135565000D01*
X80010000Y-124120000D02*
X80010000Y-116840000D01*
X91440000Y-135550000D02*
X80010000Y-124120000D01*
X91440000Y-139700000D02*
X91440000Y-135550000D01*
X78595100Y-116840000D02*
X77470000Y-116840000D01*
X78595100Y-116607000D02*
X78595100Y-116840000D01*
X79487100Y-115715000D02*
X78595100Y-116607000D01*
X80484100Y-115715000D02*
X79487100Y-115715000D01*
X81424800Y-116656000D02*
X80484100Y-115715000D01*
X81424800Y-117311000D02*
X81424800Y-116656000D01*
X82871200Y-118757000D02*
X81424800Y-117311000D01*
X87574300Y-118757000D02*
X82871200Y-118757000D01*
X90676000Y-121859000D02*
X87574300Y-118757000D01*
X112279000Y-121859000D02*
X90676000Y-121859000D01*
X118606000Y-128186000D02*
X112279000Y-121859000D01*
X76055100Y-116840000D02*
X74930000Y-116840000D01*
X76055100Y-116607000D02*
X76055100Y-116840000D01*
X77418800Y-115243000D02*
X76055100Y-116607000D01*
X87803500Y-115243000D02*
X77418800Y-115243000D01*
X93969400Y-121409000D02*
X87803500Y-115243000D01*
X113244000Y-121409000D02*
X93969400Y-121409000D01*
X119314000Y-127479000D02*
X113244000Y-121409000D01*
X73515100Y-116840000D02*
X72390000Y-116840000D01*
X73515100Y-116607000D02*
X73515100Y-116840000D01*
X75354700Y-114767000D02*
X73515100Y-116607000D01*
X88063300Y-114767000D02*
X75354700Y-114767000D01*
X94255000Y-120959000D02*
X88063300Y-114767000D01*
X113819000Y-120959000D02*
X94255000Y-120959000D01*
X120906000Y-128046000D02*
X113819000Y-120959000D01*
X120906000Y-128397000D02*
X120906000Y-128046000D01*
X127000000Y-135565000D02*
X127000000Y-139700000D01*
X126055000Y-134620000D02*
X127000000Y-135565000D01*
X125882000Y-134620000D02*
X126055000Y-134620000D01*
X70975100Y-116840000D02*
X69850000Y-116840000D01*
X70975100Y-116607000D02*
X70975100Y-116840000D01*
X73264900Y-114317000D02*
X70975100Y-116607000D01*
X88567900Y-114317000D02*
X73264900Y-114317000D01*
X94759700Y-120509000D02*
X88567900Y-114317000D01*
X115552000Y-120509000D02*
X94759700Y-120509000D01*
X120928000Y-125884000D02*
X115552000Y-120509000D01*
X129540000Y-135565000D02*
X129540000Y-139700000D01*
X136550000Y-135565000D02*
X129540000Y-135565000D01*
X154839000Y-117276000D02*
X136550000Y-135565000D01*
X154839000Y-107915000D02*
X154839000Y-117276000D01*
X125743000Y-78819300D02*
X154839000Y-107915000D01*
X82984000Y-78819300D02*
X125743000Y-78819300D01*
X81280000Y-80523300D02*
X82984000Y-78819300D01*
X81280000Y-82020700D02*
X81280000Y-80523300D01*
X65713900Y-97586800D02*
X81280000Y-82020700D01*
X65713900Y-105389000D02*
X65713900Y-97586800D01*
X68500600Y-108176000D02*
X65713900Y-105389000D01*
X68500600Y-114524000D02*
X68500600Y-108176000D01*
X67310000Y-115715000D02*
X68500600Y-114524000D01*
X67310000Y-116840000D02*
X67310000Y-115715000D01*
X109220000Y-135565000D02*
X109220000Y-139700000D01*
X112604000Y-132180000D02*
X109220000Y-135565000D01*
X127262000Y-132180000D02*
X112604000Y-132180000D01*
X140176000Y-119266000D02*
X127262000Y-132180000D01*
X86360000Y-135565000D02*
X86360000Y-139700000D01*
X87630000Y-134295000D02*
X86360000Y-135565000D01*
X88900000Y-134295000D02*
X87630000Y-134295000D01*
X88900000Y-138430000D02*
X88900000Y-134295000D01*
X122175000Y-82805100D02*
X148590000Y-109220000D01*
X113030000Y-82805100D02*
X122175000Y-82805100D01*
X113030000Y-81280000D02*
X113030000Y-82805100D01*
X151130000Y-108095000D02*
X151130000Y-109220000D01*
X150005000Y-108095000D02*
X151130000Y-108095000D01*
X124605000Y-82694800D02*
X150005000Y-108095000D01*
X124605000Y-80673500D02*
X124605000Y-82694800D01*
X123686000Y-79754900D02*
X124605000Y-80673500D01*
X110490000Y-79754900D02*
X123686000Y-79754900D01*
X110490000Y-81280000D02*
X110490000Y-79754900D01*
X152545000Y-109220000D02*
X153670000Y-109220000D01*
X152545000Y-109501000D02*
X152545000Y-109220000D01*
X151662000Y-110385000D02*
X152545000Y-109501000D01*
X148140000Y-110385000D02*
X151662000Y-110385000D01*
X147320000Y-109565000D02*
X148140000Y-110385000D01*
X147320000Y-108830000D02*
X147320000Y-109565000D01*
X122852000Y-84361400D02*
X147320000Y-108830000D01*
X109506000Y-84361400D02*
X122852000Y-84361400D01*
X107950000Y-82805100D02*
X109506000Y-84361400D01*
X107950000Y-81280000D02*
X107950000Y-82805100D01*
X102870000Y-87248300D02*
X102870000Y-81280000D01*
X104285000Y-88663200D02*
X102870000Y-87248300D01*
X104285000Y-106970000D02*
X104285000Y-88663200D01*
X105410000Y-108095000D02*
X104285000Y-106970000D01*
X105410000Y-109220000D02*
X105410000Y-108095000D01*
X113030000Y-108095000D02*
X113030000Y-109220000D01*
X111905000Y-106970000D02*
X113030000Y-108095000D01*
X111905000Y-91574000D02*
X111905000Y-106970000D01*
X104140000Y-83809100D02*
X111905000Y-91574000D01*
X104140000Y-80538700D02*
X104140000Y-83809100D01*
X103356000Y-79754900D02*
X104140000Y-80538700D01*
X95250000Y-79754900D02*
X103356000Y-79754900D01*
X95250000Y-81280000D02*
X95250000Y-79754900D01*
X115570000Y-108095000D02*
X115570000Y-109220000D01*
X114445000Y-106970000D02*
X115570000Y-108095000D01*
X114445000Y-90942900D02*
X114445000Y-106970000D01*
X106680000Y-83178000D02*
X114445000Y-90942900D01*
X106680000Y-80550000D02*
X106680000Y-83178000D01*
X105421000Y-79290900D02*
X106680000Y-80550000D01*
X93174000Y-79290900D02*
X105421000Y-79290900D01*
X92710000Y-79754900D02*
X93174000Y-79290900D01*
X92710000Y-81280000D02*
X92710000Y-79754900D01*
X85090000Y-82805100D02*
X85090000Y-81280000D01*
X84518100Y-82805100D02*
X85090000Y-82805100D01*
X66184800Y-101138000D02*
X84518100Y-82805100D01*
X66184800Y-105030000D02*
X66184800Y-101138000D01*
X69249700Y-108095000D02*
X66184800Y-105030000D01*
X69850000Y-108095000D02*
X69249700Y-108095000D01*
X69850000Y-109220000D02*
X69850000Y-108095000D01*
D18*
X98154900Y-110570000D02*
X92710000Y-110570000D01*
X99129900Y-109595000D02*
X98154900Y-110570000D01*
X99129900Y-109220000D02*
X99129900Y-109595000D01*
X100330000Y-109220000D02*
X99129900Y-109220000D01*
X119450000Y-116840000D02*
X120650000Y-116840000D01*
X119450000Y-116465000D02*
X119450000Y-116840000D01*
X113837000Y-110852000D02*
X119450000Y-116465000D01*
X102789000Y-110852000D02*
X113837000Y-110852000D01*
X101530000Y-109593000D02*
X102789000Y-110852000D01*
X101530000Y-109220000D02*
X101530000Y-109593000D01*
X100330000Y-109220000D02*
X101530000Y-109220000D01*
X69850000Y-99100000D02*
X74970000Y-93980000D01*
X69850000Y-104140000D02*
X69850000Y-99100000D01*
X65134900Y-110570000D02*
X59690000Y-110570000D01*
X66109900Y-109595000D02*
X65134900Y-110570000D01*
X66109900Y-109220000D02*
X66109900Y-109595000D01*
X67310000Y-109220000D02*
X66109900Y-109220000D01*
X132150000Y-109220000D02*
X132750000Y-109220000D01*
X132150000Y-109593000D02*
X132150000Y-109220000D01*
X131213000Y-110530000D02*
X132150000Y-109593000D01*
X125730000Y-110530000D02*
X131213000Y-110530000D01*
X137853000Y-114323000D02*
X132750000Y-109220000D01*
X150326000Y-114323000D02*
X137853000Y-114323000D01*
X152470000Y-116467000D02*
X150326000Y-114323000D01*
X152470000Y-116840000D02*
X152470000Y-116467000D01*
X153670000Y-116840000D02*
X152470000Y-116840000D01*
X133350000Y-109220000D02*
X132750000Y-109220000D01*
X87630000Y-116840000D02*
X85090000Y-116840000D01*
X85090000Y-116840000D02*
X82550000Y-116840000D01*
X123220000Y-118040000D02*
X125730000Y-115530000D01*
X99815100Y-118040000D02*
X123220000Y-118040000D01*
X98990100Y-117215000D02*
X99815100Y-118040000D01*
X98990100Y-116840000D02*
X98990100Y-117215000D01*
X97790000Y-116840000D02*
X98990100Y-116840000D01*
X128300000Y-115530000D02*
X125730000Y-115530000D01*
X129610000Y-116840000D02*
X128300000Y-115530000D01*
X130810000Y-116840000D02*
X129610000Y-116840000D01*
X69364900Y-106195000D02*
X67310000Y-104140000D01*
X81248700Y-106195000D02*
X69364900Y-106195000D01*
X83820000Y-108766000D02*
X81248700Y-106195000D01*
X83820000Y-109726000D02*
X83820000Y-108766000D01*
X84606000Y-110512000D02*
X83820000Y-109726000D01*
X87651900Y-110512000D02*
X84606000Y-110512000D01*
X92710000Y-115570000D02*
X87651900Y-110512000D01*
M02*
