M48
; DRILL file {KiCad (6.0.9)} date Fri Mar  3 19:20:33 2023
; FORMAT={-:-/ absolute / metric / decimal}
; #@! TF.CreationDate,2023-03-03T19:20:33+01:00
; #@! TF.GenerationSoftware,Kicad,Pcbnew,(6.0.9)
; #@! TF.FileFunction,Plated,1,2,PTH
FMAT,2
METRIC
; #@! TA.AperFunction,Plated,PTH,ViaDrill
T1C0.400
; #@! TA.AperFunction,Plated,PTH,ComponentDrill
T2C0.800
%
G90
G05
T1
X100.066Y-130.525
X100.33Y-134.62
X101.193Y-130.18
X101.205Y-133.433
X108.607Y-123.52
X110.923Y-122.584
X117.958Y-134.62
X118.606Y-128.186
X119.314Y-127.479
X120.39Y-131.19
X120.906Y-128.397
X120.928Y-125.884
X125.882Y-134.62
X140.176Y-119.266
T2
X59.69Y-110.57
X59.69Y-115.57
X64.77Y-109.22
X64.77Y-116.84
X67.31Y-81.28
X67.31Y-104.14
X67.31Y-109.22
X67.31Y-116.84
X69.85Y-81.28
X69.85Y-104.14
X69.85Y-109.22
X69.85Y-116.84
X72.39Y-81.28
X72.39Y-104.14
X72.39Y-109.22
X72.39Y-116.84
X74.93Y-81.28
X74.93Y-104.14
X74.93Y-109.22
X74.93Y-116.84
X74.97Y-93.98
X77.47Y-81.28
X77.47Y-104.14
X77.47Y-109.22
X77.47Y-116.84
X79.97Y-93.98
X80.01Y-81.28
X80.01Y-104.14
X80.01Y-109.22
X80.01Y-116.84
X82.55Y-81.28
X82.55Y-104.14
X82.55Y-109.22
X82.55Y-116.84
X85.09Y-81.28
X85.09Y-104.14
X85.09Y-109.22
X85.09Y-116.84
X87.63Y-81.28
X87.63Y-104.14
X87.63Y-109.22
X87.63Y-116.84
X90.17Y-81.28
X90.17Y-104.14
X92.71Y-81.28
X92.71Y-104.14
X92.71Y-110.57
X92.71Y-115.57
X95.25Y-81.28
X95.25Y-104.14
X97.79Y-81.28
X97.79Y-104.14
X97.79Y-109.22
X97.79Y-116.84
X100.33Y-81.28
X100.33Y-104.14
X100.33Y-109.22
X100.33Y-116.84
X102.87Y-81.28
X102.87Y-104.14
X102.87Y-109.22
X102.87Y-116.84
X105.41Y-81.28
X105.41Y-104.14
X105.41Y-109.22
X105.41Y-116.84
X107.95Y-81.28
X107.95Y-104.14
X107.95Y-109.22
X107.95Y-116.84
X110.49Y-81.28
X110.49Y-104.14
X110.49Y-109.22
X110.49Y-116.84
X113.03Y-81.28
X113.03Y-104.14
X113.03Y-109.22
X113.03Y-116.84
X115.57Y-81.28
X115.57Y-104.14
X115.57Y-109.22
X115.57Y-116.84
X118.11Y-81.28
X118.11Y-104.14
X118.11Y-109.22
X118.11Y-116.84
X120.65Y-81.28
X120.65Y-104.14
X120.65Y-109.22
X120.65Y-116.84
X123.19Y-81.28
X123.19Y-104.14
X125.73Y-81.28
X125.73Y-104.14
X125.73Y-110.53
X125.73Y-115.53
X130.81Y-109.22
X130.81Y-116.84
X133.35Y-109.22
X133.35Y-116.84
X135.89Y-109.22
X135.89Y-116.84
X138.43Y-109.22
X138.43Y-116.84
X140.97Y-109.22
X140.97Y-116.84
X143.51Y-109.22
X143.51Y-116.84
X146.05Y-109.22
X146.05Y-116.84
X148.59Y-109.22
X148.59Y-116.84
X151.13Y-109.22
X151.13Y-116.84
X153.67Y-109.22
X153.67Y-116.84
T0
M30
