G04 #@! TF.GenerationSoftware,KiCad,Pcbnew,(6.0.9)*
G04 #@! TF.CreationDate,2023-03-03T19:19:16+01:00*
G04 #@! TF.ProjectId,02_Cartucho_MSX_Tang_Nano_9k_TMS9918,30325f43-6172-4747-9563-686f5f4d5358,rev?*
G04 #@! TF.SameCoordinates,Original*
G04 #@! TF.FileFunction,Soldermask,Top*
G04 #@! TF.FilePolarity,Negative*
%FSLAX46Y46*%
G04 Gerber Fmt 4.6, Leading zero omitted, Abs format (unit mm)*
G04 Created by KiCad (PCBNEW (6.0.9)) date 2023-03-03 19:19:16*
%MOMM*%
%LPD*%
G01*
G04 APERTURE LIST*
%ADD10C,1.600000*%
%ADD11R,1.600000X1.600000*%
%ADD12O,1.600000X1.600000*%
%ADD13C,4.900000*%
%ADD14R,1.270000X7.620000*%
%ADD15R,1.600000X2.400000*%
%ADD16O,1.600000X2.400000*%
G04 APERTURE END LIST*
D10*
X79970000Y-93980000D03*
X74970000Y-93980000D03*
X125730000Y-115530000D03*
X125730000Y-110530000D03*
X92710000Y-115570000D03*
X92710000Y-110570000D03*
X59690000Y-115570000D03*
X59690000Y-110570000D03*
D11*
X64770000Y-116840000D03*
D12*
X67310000Y-116840000D03*
X69850000Y-116840000D03*
X72390000Y-116840000D03*
X74930000Y-116840000D03*
X77470000Y-116840000D03*
X80010000Y-116840000D03*
X82550000Y-116840000D03*
X85090000Y-116840000D03*
X87630000Y-116840000D03*
X87630000Y-109220000D03*
X85090000Y-109220000D03*
X82550000Y-109220000D03*
X80010000Y-109220000D03*
X77470000Y-109220000D03*
X74930000Y-109220000D03*
X72390000Y-109220000D03*
X69850000Y-109220000D03*
X67310000Y-109220000D03*
X64770000Y-109220000D03*
D13*
X83660000Y-122465000D03*
X139860000Y-127565000D03*
D14*
X142240000Y-139700000D03*
X139700000Y-139700000D03*
X137160000Y-139700000D03*
X134620000Y-139700000D03*
X132080000Y-139700000D03*
X129540000Y-139700000D03*
X127000000Y-139700000D03*
X124460000Y-139700000D03*
X121920000Y-139700000D03*
X119380000Y-139700000D03*
X116840000Y-139700000D03*
X114300000Y-139700000D03*
X111760000Y-139700000D03*
X109220000Y-139700000D03*
X106680000Y-139700000D03*
X104140000Y-139700000D03*
X101600000Y-139700000D03*
X99060000Y-139700000D03*
X96520000Y-139700000D03*
X93980000Y-139700000D03*
X91440000Y-139700000D03*
X88900000Y-138430000D03*
X86360000Y-139700000D03*
X83820000Y-139700000D03*
X81280000Y-139700000D03*
D15*
X125730000Y-81280000D03*
D16*
X123190000Y-81280000D03*
X120650000Y-81280000D03*
X118110000Y-81280000D03*
X115570000Y-81280000D03*
X113030000Y-81280000D03*
X110490000Y-81280000D03*
X107950000Y-81280000D03*
X105410000Y-81280000D03*
X102870000Y-81280000D03*
X100330000Y-81280000D03*
X97790000Y-81280000D03*
X95250000Y-81280000D03*
X92710000Y-81280000D03*
X90170000Y-81280000D03*
X87630000Y-81280000D03*
X85090000Y-81280000D03*
X82550000Y-81280000D03*
X80010000Y-81280000D03*
X77470000Y-81280000D03*
X74930000Y-81280000D03*
X72390000Y-81280000D03*
X69850000Y-81280000D03*
X67310000Y-81280000D03*
X67310000Y-104140000D03*
X69850000Y-104140000D03*
X72390000Y-104140000D03*
X74930000Y-104140000D03*
X77470000Y-104140000D03*
X80010000Y-104140000D03*
X82550000Y-104140000D03*
X85090000Y-104140000D03*
X87630000Y-104140000D03*
X90170000Y-104140000D03*
X92710000Y-104140000D03*
X95250000Y-104140000D03*
X97790000Y-104140000D03*
X100330000Y-104140000D03*
X102870000Y-104140000D03*
X105410000Y-104140000D03*
X107950000Y-104140000D03*
X110490000Y-104140000D03*
X113030000Y-104140000D03*
X115570000Y-104140000D03*
X118110000Y-104140000D03*
X120650000Y-104140000D03*
X123190000Y-104140000D03*
X125730000Y-104140000D03*
D11*
X130810000Y-116840000D03*
D12*
X133350000Y-116840000D03*
X135890000Y-116840000D03*
X138430000Y-116840000D03*
X140970000Y-116840000D03*
X143510000Y-116840000D03*
X146050000Y-116840000D03*
X148590000Y-116840000D03*
X151130000Y-116840000D03*
X153670000Y-116840000D03*
X153670000Y-109220000D03*
X151130000Y-109220000D03*
X148590000Y-109220000D03*
X146050000Y-109220000D03*
X143510000Y-109220000D03*
X140970000Y-109220000D03*
X138430000Y-109220000D03*
X135890000Y-109220000D03*
X133350000Y-109220000D03*
X130810000Y-109220000D03*
D11*
X97790000Y-116840000D03*
D12*
X100330000Y-116840000D03*
X102870000Y-116840000D03*
X105410000Y-116840000D03*
X107950000Y-116840000D03*
X110490000Y-116840000D03*
X113030000Y-116840000D03*
X115570000Y-116840000D03*
X118110000Y-116840000D03*
X120650000Y-116840000D03*
X120650000Y-109220000D03*
X118110000Y-109220000D03*
X115570000Y-109220000D03*
X113030000Y-109220000D03*
X110490000Y-109220000D03*
X107950000Y-109220000D03*
X105410000Y-109220000D03*
X102870000Y-109220000D03*
X100330000Y-109220000D03*
X97790000Y-109220000D03*
M02*
